<svg width="25" height="25" viewBox="0 0 25 25" fill="none" xmlns="http://www.w3.org/2000/svg">
<path d="M17.6631 15.6006H16.5769L16.1919 15.2294C17.5394 13.6619 18.3506 11.6269 18.3506 9.41315C18.3506 4.4769 14.3494 0.475647 9.41315 0.475647C4.4769 0.475647 0.475647 4.4769 0.475647 9.41315C0.475647 14.3494 4.4769 18.3506 9.41315 18.3506C11.6269 18.3506 13.6619 17.5394 15.2294 16.1919L15.6006 16.5769V17.6631L22.4756 24.5244L24.5244 22.4756L17.6631 15.6006ZM9.41315 15.6006C5.9894 15.6006 3.22565 12.8369 3.22565 9.41315C3.22565 5.9894 5.9894 3.22565 9.41315 3.22565C12.8369 3.22565 15.6006 5.9894 15.6006 9.41315C15.6006 12.8369 12.8369 15.6006 9.41315 15.6006Z" fill="#7E22CE"/>
</svg>
